<?xml version="1.0" encoding="UTF-8"?>
<!-- Created with Inkscape (http://www.inkscape.org/) -->
<svg width="45.155mm" height="7.9652mm" version="1.1" viewBox="0 0 45.155 7.9652" xmlns="http://www.w3.org/2000/svg" xmlns:cc="http://creativecommons.org/ns#" xmlns:dc="http://purl.org/dc/elements/1.1/" xmlns:rdf="http://www.w3.org/1999/02/22-rdf-syntax-ns#">
 <metadata>
  <rdf:RDF>
   <cc:Work rdf:about="">
    <dc:format>image/svg+xml</dc:format>
    <dc:type rdf:resource="http://purl.org/dc/dcmitype/StillImage"/>
    <dc:title/>
   </cc:Work>
  </rdf:RDF>
 </metadata>
 <g transform="translate(-5.9387 -91.619)">
  <flowRoot fill="#000000" font-family="sans-serif" font-size="40px" letter-spacing="0px" word-spacing="0px" style="line-height:1.25" xml:space="preserve"><flowRegion><rect x="431.43" y="71.091" width="358.57" height="75.714"/></flowRegion><flowPara/></flowRoot>
  <g transform="matrix(.26458 0 0 .26458 7.0196 82.83)" aria-label="ookmark">
   <path d="m152.14 33.217h-3.32v29.16h3.32v-8.16l3.24-3.2 7.08 11.36h4.12l-8.56-13.72 7.28-7.24h-4.28l-8.88 8.88zm-6.5212 11.12v-3.4c-0.56-0.08-0.84-0.12-1.28-0.12-2.16 0-3.8 1.28-5.72 4.4v-3.8h-3.08v20.96h3.36v-10.88c0-5.88 2.68-7.08 6.72-7.16zm-32.079 3.28h3.36c0.28-2.56 1.8-3.72 4.92-3.72 3 0 4.68 1.12 4.68 3.12v0.88c0 1.4-0.84 2-3.48 2.32-6.12 0.8-10.4 1.28-10.4 6.88 0 3.8 2.64 6.2 6.88 6.2 2.64 0 4.76-0.92 7.12-3.08 0.24 2.12 1.28 3.08 3.44 3.08 0.68 0 1.2-0.08 2.28-0.36v-2.52c-0.36 0.08-0.52 0.08-0.72 0.08-1.16 0-1.8-0.6-1.8-1.64v-12.32c0-3.72-2.72-5.72-7.88-5.72-3.76 0-8.2 1.12-8.4 6.8zm6.68 12.76c-2.6 0-4.12-1.24-4.12-3.36 0-4.6 7-3.44 10.4-5v3.76c0 2-2.32 4.6-6.28 4.6zm-38.9-18.96v20.96h3.36v-13.16c0-3.04 2.2-5.48 4.92-5.48 2.48 0 3.88 1.52 3.88 4.2v14.44h3.36v-13.16c0-3.04 2.2-5.48 4.92-5.48 2.44 0 3.88 1.56 3.88 4.2v14.44h3.36v-15.72c0-3.76-2.16-5.84-6.08-5.84-2.8 0-4.48 0.84-6.44 3.2-1.24-2.24-2.92-3.2-5.64-3.2-2.8 0-4.64 1.04-6.44 3.56v-2.96zm-17.227-8.2h-3.32v29.16h3.32v-8.16l3.24-3.2 7.08 11.36h4.12l-8.56-13.72 7.28-7.24h-4.28l-8.88 8.88zm-16.408 7.6c-5.88 0-9.44 4.2-9.44 11.24s3.52 11.24 9.48 11.24c5.88 0 9.48-4.2 9.48-11.08 0-7.24-3.48-11.4-9.52-11.4zm0.04 3.08c3.76 0 6 3.08 6 8.28 0 4.92-2.32 8.04-6 8.04-3.72 0-6-3.08-6-8.16 0-5.04 2.28-8.16 6-8.16zm-21.368-3.08c-5.88 0-9.44 4.2-9.44 11.24s3.52 11.24 9.48 11.24c5.88 0 9.48-4.2 9.48-11.08 0-7.24-3.48-11.4-9.52-11.4zm0.04 3.08c3.76 0 6 3.08 6 8.28 0 4.92-2.32 8.04-6 8.04-3.72 0-6-3.08-6-8.16 0-5.04 2.28-8.16 6-8.16zm-30.48-9.7335v29.158h3.7207v-13.279h5.1758v-3.2793h-5.1758v-12.6zm12.65-0.05076v2.0058c2.7608 2.5417 3.0371 9.1141 0 10.594h-1.0234v3.2812h1.0234c2.9982 1.4796 3.2946 9.2823 0 11.393v1.8867h3.7188v-1.709c2.7769-2.0088 2.3155-10.19 0-13.303 2.5311-3.7283 2.1578-9.7082 0-12.143v-2.0058z"/>
  </g>
 </g>
</svg>
